<svg xmlns="http://www.w3.org/2000/svg" viewBox="0 0 32 32" fill="none">
  <!-- Black circle background -->
  <circle cx="16" cy="16" r="15" fill="#000000"/>

  <!-- Sun rays -->
  <g fill="#ffffff" transform="translate(16,14)">
    <polygon points="0,-10 0.5,-2 -0.5,-2"/>
    <polygon points="0,-10 1,-3 -1,-3" transform="rotate(15)"/>
    <polygon points="0,-10 1,-3 -1,-3" transform="rotate(30)"/>
    <polygon points="0,-10 1,-3 -1,-3" transform="rotate(45)"/>
    <polygon points="0,-10 1,-3 -1,-3" transform="rotate(60)"/>
    <polygon points="0,-10 1,-3 -1,-3" transform="rotate(75)"/>
    <polygon points="0,-10 1,-3 -1,-3" transform="rotate(90)"/>
    <polygon points="0,-10 1,-3 -1,-3" transform="rotate(105)"/>
    <polygon points="0,-10 1,-3 -1,-3" transform="rotate(120)"/>
    <polygon points="0,-10 1,-3 -1,-3" transform="rotate(135)"/>
    <polygon points="0,-10 1,-3 -1,-3" transform="rotate(150)"/>
    <polygon points="0,-10 1,-3 -1,-3" transform="rotate(165)"/>
    <polygon points="0,-10 1,-3 -1,-3" transform="rotate(-15)"/>
    <polygon points="0,-10 1,-3 -1,-3" transform="rotate(-30)"/>
    <polygon points="0,-10 1,-3 -1,-3" transform="rotate(-45)"/>
    <polygon points="0,-10 1,-3 -1,-3" transform="rotate(-60)"/>
    <polygon points="0,-10 1,-3 -1,-3" transform="rotate(-75)"/>
    <circle cx="0" cy="0" r="4" fill="#ffffff"/>
  </g>

  <!-- Mountain -->
  <polygon points="6,28 16,14 26,28" fill="#000000"/>

  <!-- Lightning bolt -->
  <polygon points="3,17 8,17 5,22 9,22 2,30 5,23 3,23" fill="#ffffff"/>
</svg>
